<svg width="49" height="50" viewBox="0 0 49 50" fill="none" xmlns="http://www.w3.org/2000/svg">
<circle cx="24.5" cy="24.9854" r="24.5" fill="#F9F9F9"/>
<path d="M34.2232 34.3432V32.1038C34.2232 30.9159 33.7338 29.7767 32.8628 28.9368C31.9918 28.0969 30.8104 27.625 29.5785 27.625H20.2892C19.0574 27.625 17.876 28.0969 17.0049 28.9368C16.1339 29.7767 15.6445 30.9159 15.6445 32.1038V34.3432" stroke="#292D32" stroke-width="1.5" stroke-linecap="round" stroke-linejoin="round"/>
<path d="M24.9337 23.1461C27.4989 23.1461 29.5784 21.1408 29.5784 18.6673C29.5784 16.1937 27.4989 14.1885 24.9337 14.1885C22.3685 14.1885 20.2891 16.1937 20.2891 18.6673C20.2891 21.1408 22.3685 23.1461 24.9337 23.1461Z" stroke="#292D32" stroke-width="1.5" stroke-linecap="round" stroke-linejoin="round"/>
</svg>
