<svg width="415" height="146" viewBox="0 0 415 146" fill="none" xmlns="http://www.w3.org/2000/svg">
<path d="M269.5 1.99074C264.229 0.403314 261.162 -0.0226548 255.5 0.000914354H0V143.312C0 143.312 330.5 146 360.5 146C390.5 146 415 134.5 415 103V0.000914354C414.334 9.44124 412.958 13.9688 409 20.8941C405.54 26.2551 403.2 29.0653 397.5 33.3305C395.322 34.9003 393.836 35.4027 390.5 35.3203C388.569 35.0736 387.475 34.3545 385.5 31.8381C384.462 29.7835 383.787 28.8438 382.5 27.361C380.722 24.9113 379.4 23.8127 377 21.889C373.471 19.0867 371.316 17.8272 367 16.417C360.291 14.8845 356.556 14.4514 350 15.4221L349.71 15.4978C347.039 16.1944 344.583 16.8349 341.5 18.4068C338.221 20.0783 334 23.3814 333.5 23.8788C333 24.3763 326.5 32.833 326 33.3305C325.5 33.8279 322.425 37.4276 318.5 37.3101C314.906 37.0718 312.947 36.417 309.5 34.8228C306.472 32.9396 304.84 31.5887 302 28.8534L293 19.4017L282.5 8.95512C278.101 5.61245 275.361 3.98939 269.5 1.99074Z" fill="white"/>
</svg>
