<svg width="361" height="175" viewBox="0 0 361 175" fill="none" xmlns="http://www.w3.org/2000/svg">
<path d="M223.405 17.9498C219.29 16.395 216.895 15.9778 212.475 16.0009H13V156.367C13 156.367 271.029 159 294.451 159C317.872 159 337 147.736 337 116.884V16.0009C336 25 333.5 27 329.5 34.5C326 39 326.5 38 323 41C320.262 43.3465 318.5 44 317 44C314.938 44 315 42.5 314 41.5C313 39.5 312.908 40.0696 312 38.5C310.612 36.1006 309.374 34.3842 307.5 32.5C304.745 29.7553 300.37 27.3812 297 26C291.762 24.4991 286.619 24.5493 281.5 25.5C279.326 26.2123 277.494 26.4048 275 28C272.44 29.6372 269 31.5 267 34C265 36.5 262.89 40.0128 262.5 40.5L262.478 40.527C262.039 41.0766 260.012 43.6131 257 43.5C254 42.5 254.691 42.5614 252 41C249.636 39.1554 248.217 38.1791 246 35.5L239 28.5L234 24C229.5 20.5 227.981 19.9074 223.405 17.9498Z" fill="white"/>
</svg>
